<svg width="131" height="22" viewBox="0 0 131 22" fill="none" xmlns="http://www.w3.org/2000/svg">
<path d="M9.12304 1.52508C9.42645 0.970059 10.2236 0.970059 10.527 1.52508L12.892 5.85148C12.9985 6.0463 13.1812 6.1881 13.3963 6.24295L17.9765 7.41076C18.5374 7.55377 18.7655 8.22675 18.4071 8.6813L15.2517 12.683C15.127 12.8412 15.0665 13.0405 15.0823 13.2413L15.4922 18.4399C15.5403 19.0508 14.9119 19.4868 14.3565 19.2278L10.1631 17.2721C9.9488 17.1721 9.7012 17.1721 9.48685 17.2721L5.29352 19.2278C4.73814 19.4868 4.10968 19.0508 4.15784 18.4399L4.56767 13.2413C4.5835 13.0405 4.52303 12.8412 4.39835 12.683L1.24293 8.6813C0.884514 8.22675 1.11256 7.55377 1.67348 7.41076L6.25368 6.24295C6.46882 6.1881 6.65149 6.0463 6.75799 5.85148L9.12304 1.52508Z" fill="#FEB546" stroke="#FEB546" stroke-width="1.5"/>
<path d="M36.959 1.52508C37.2624 0.970059 38.0595 0.970059 38.3629 1.52508L40.728 5.85148C40.8344 6.0463 41.0171 6.1881 41.2323 6.24295L45.8125 7.41076C46.3734 7.55377 46.6014 8.22675 46.243 8.6813L43.0876 12.683C42.9629 12.8412 42.9024 13.0405 42.9183 13.2413L43.3281 18.4399C43.3763 19.0508 42.7478 19.4868 42.1924 19.2278L37.9991 17.2721C37.7847 17.1721 37.5371 17.1721 37.3228 17.2721L33.1295 19.2278C32.5741 19.4868 31.9456 19.0508 31.9938 18.4399L32.4036 13.2413C32.4194 13.0405 32.359 12.8412 32.2343 12.683L29.0789 8.6813C28.7205 8.22675 28.9485 7.55377 29.5094 7.41076L34.0896 6.24295C34.3048 6.1881 34.4874 6.0463 34.5939 5.85148L36.959 1.52508Z" fill="#FEB546" stroke="#FEB546" stroke-width="1.5"/>
<path d="M64.7988 1.52508C65.1022 0.970059 65.8993 0.970059 66.2027 1.52508L68.5678 5.85148C68.6743 6.0463 68.857 6.1881 69.0721 6.24295L73.6523 7.41076C74.2132 7.55377 74.4413 8.22675 74.0828 8.6813L70.9274 12.683C70.8027 12.8412 70.7423 13.0405 70.7581 13.2413L71.1679 18.4399C71.2161 19.0508 70.5876 19.4868 70.0323 19.2278L65.8389 17.2721C65.6246 17.1721 65.377 17.1721 65.1626 17.2721L60.9693 19.2278C60.4139 19.4868 59.7855 19.0508 59.8336 18.4399L60.2435 13.2413C60.2593 13.0405 60.1988 12.8412 60.0741 12.683L56.9187 8.6813C56.5603 8.22675 56.7883 7.55377 57.3493 7.41076L61.9295 6.24295C62.1446 6.1881 62.3273 6.0463 62.4338 5.85148L64.7988 1.52508Z" fill="#FEB546" stroke="#FEB546" stroke-width="1.5"/>
<path d="M92.6348 1.52508C92.9382 0.970059 93.7353 0.970059 94.0387 1.52508L96.4037 5.85148C96.5102 6.0463 96.6929 6.1881 96.908 6.24295L101.488 7.41076C102.049 7.55377 102.277 8.22675 101.919 8.6813L98.7634 12.683C98.6387 12.8412 98.5782 13.0405 98.594 13.2413L99.0039 18.4399C99.052 19.0508 98.4236 19.4868 97.8682 19.2278L93.6749 17.2721C93.4605 17.1721 93.2129 17.1721 92.9986 17.2721L88.8052 19.2278C88.2499 19.4868 87.6214 19.0508 87.6696 18.4399L88.0794 13.2413C88.0952 13.0405 88.0348 12.8412 87.9101 12.683L84.7547 8.6813C84.3962 8.22675 84.6243 7.55377 85.1852 7.41076L89.7654 6.24295C89.9805 6.1881 90.1632 6.0463 90.2697 5.85148L92.6348 1.52508Z" fill="#FEB546" stroke="#FEB546" stroke-width="1.5"/>
<path d="M120.475 1.52508C120.778 0.970059 121.575 0.970059 121.879 1.52508L124.244 5.85148C124.35 6.0463 124.533 6.1881 124.748 6.24295L129.328 7.41076C129.889 7.55377 130.117 8.22675 129.759 8.6813L126.603 12.683C126.479 12.8412 126.418 13.0405 126.434 13.2413L126.844 18.4399C126.892 19.0508 126.263 19.4868 125.708 19.2278L121.515 17.2721C121.3 17.1721 121.053 17.1721 120.838 17.2721L116.645 19.2278C116.09 19.4868 115.461 19.0508 115.509 18.4399L115.919 13.2413C115.935 13.0405 115.875 12.8412 115.75 12.683L112.594 8.6813C112.236 8.22675 112.464 7.55377 113.025 7.41076L117.605 6.24295C117.82 6.1881 118.003 6.0463 118.11 5.85148L120.475 1.52508Z" fill="#FEB546" stroke="#FEB546" stroke-width="1.5"/>
</svg>
