<svg xmlns="http://www.w3.org/2000/svg" width="30" height="30" viewBox="0 0 30 30" fill="none">
    <g clip-path="url(#clip0_1_222)">
    <path d="M15.0016 0.600098C7.04856 0.600098 0.601562 7.0471 0.601562 15.0001C0.601562 22.9531 7.04856 29.4001 15.0016 29.4001C22.9546 29.4001 29.4016 22.9531 29.4016 15.0001C29.4016 7.0471 22.9546 0.600098 15.0016 0.600098ZM18.4126 10.5511H16.2481C15.9916 10.5511 15.7066 10.8886 15.7066 11.3371V12.9001H18.4141L18.0046 15.1291H15.7066V21.8206H13.1521V15.1291H10.8346V12.9001H13.1521V11.5891C13.1521 9.7081 14.4571 8.1796 16.2481 8.1796H18.4126V10.5511V10.5511Z" fill="#699BF7"/>
    </g>
    <defs>
    <clipPath id="clip0_1_222">
    <rect width="30" height="30" fill="white"/>
    </clipPath>
    </defs>
    </svg>