<svg width="19" height="19" viewBox="0 0 19 19" fill="none" xmlns="http://www.w3.org/2000/svg">
<path fill-rule="evenodd" clip-rule="evenodd" d="M7.35407 6.9386H10.6967V8.6036C11.1782 7.646 12.413 6.7856 14.2679 6.7856C17.8238 6.7856 18.668 8.6918 18.668 12.1892V18.6665H15.068V12.9857C15.068 10.994 14.5865 9.8708 13.3607 9.8708C11.6606 9.8708 10.9541 11.0813 10.9541 12.9848V18.6665H7.35407V6.9386ZM1.18097 18.5135H4.78097V6.7856H1.18097V18.5135ZM5.29667 2.9615C5.2968 3.26325 5.23696 3.56202 5.12062 3.84043C5.00428 4.11885 4.83376 4.37137 4.61897 4.5833C4.18373 5.01587 3.5946 5.25799 2.98097 5.2565C2.36842 5.25609 1.78065 5.01458 1.34477 4.5842C1.13076 4.37155 0.960816 4.11875 0.844678 3.84029C0.72854 3.56184 0.66849 3.26321 0.667969 2.9615C0.667969 2.3522 0.910969 1.769 1.34567 1.3388C1.78117 0.907846 2.36918 0.666235 2.98187 0.666504C3.59567 0.666504 4.18427 0.908604 4.61897 1.3388C5.05277 1.769 5.29667 2.3522 5.29667 2.9615Z" fill="white"/>
</svg>
