<svg width="66" height="57" viewBox="0 0 66 57" fill="none" xmlns="http://www.w3.org/2000/svg">
<path opacity="0.6" d="M18.9699 30.3785C21.6366 31.3118 23.7033 32.8452 25.1699 34.9785C26.6366 37.1118 27.3699 39.7118 27.3699 42.7785C27.3699 46.7785 26.1033 50.0452 23.5699 52.5785C21.0366 55.1118 17.9033 56.3785 14.1699 56.3785C10.3033 56.3785 7.10327 55.1118 4.56993 52.5785C2.0366 49.9118 0.769932 46.6452 0.769932 42.7785C0.769932 40.9118 0.969932 39.0452 1.36993 37.1785C1.90326 35.1785 2.90326 32.3118 4.36993 28.5785L13.7699 0.578507H26.3699L18.9699 30.3785ZM56.7699 30.3785C59.4366 31.3118 61.5033 32.8452 62.9699 34.9785C64.4366 37.1118 65.1699 39.7118 65.1699 42.7785C65.1699 46.7785 63.9033 50.0452 61.3699 52.5785C58.8366 55.1118 55.7033 56.3785 51.9699 56.3785C48.1033 56.3785 44.9033 55.1118 42.3699 52.5785C39.8366 49.9118 38.5699 46.6452 38.5699 42.7785C38.5699 40.9118 38.7699 39.0452 39.1699 37.1785C39.7033 35.1785 40.7033 32.3118 42.1699 28.5785L51.5699 0.578507H64.1699L56.7699 30.3785Z" fill="#1E1E1E"/>
</svg>
