<svg width="20" height="21" viewBox="0 0 20 21" fill="none" xmlns="http://www.w3.org/2000/svg">
<path d="M9.12304 1.52508C9.42645 0.970059 10.2236 0.970059 10.527 1.52508L12.892 5.85148C12.9985 6.0463 13.1812 6.1881 13.3963 6.24295L17.9765 7.41076C18.5374 7.55377 18.7655 8.22675 18.4071 8.6813L15.2517 12.683C15.127 12.8412 15.0665 13.0405 15.0823 13.2413L15.4922 18.4399C15.5403 19.0508 14.9119 19.4868 14.3565 19.2278L10.1631 17.2721C9.9488 17.1721 9.7012 17.1721 9.48685 17.2721L5.29352 19.2278C4.73814 19.4868 4.10968 19.0508 4.15784 18.4399L4.56767 13.2413C4.5835 13.0405 4.52303 12.8412 4.39835 12.683L1.24293 8.6813C0.884514 8.22675 1.11256 7.55377 1.67348 7.41076L6.25368 6.24295C6.46882 6.1881 6.65149 6.0463 6.75799 5.85148L9.12304 1.52508Z" fill="#FEB546" stroke="#FEB546" stroke-width="1.5"/>
</svg>
