<svg width="74" height="74" viewBox="0 0 74 74" fill="none" xmlns="http://www.w3.org/2000/svg">
<path d="M59.9962 39.2654L58.8964 38.2454L59.9962 39.2654ZM34.7342 14.0034L35.7542 15.1032L34.7342 14.0034ZM71.9907 8.76776L73.478 8.96229L71.9907 8.76776ZM65.2319 2.00893L65.4264 3.49627L65.2319 2.00893ZM17.8069 38.6999L19.1538 39.3602L17.8069 38.6999ZM35.2997 56.1927L34.6394 54.8459L35.2997 56.1927ZM23.164 30.626C22.5782 30.0402 21.6285 30.0402 21.0427 30.626C20.4569 31.2118 20.4569 32.1616 21.0427 32.7473L23.164 30.626ZM41.2523 52.9569C41.8381 53.5427 42.7878 53.5427 43.3736 52.9569C43.9594 52.3712 43.9594 51.4214 43.3736 50.8356L41.2523 52.9569ZM16.8485 59.2724C17.4343 58.6867 17.4343 57.7369 16.8485 57.1511C16.2627 56.5653 15.313 56.5653 14.7272 57.1511L16.8485 59.2724ZM4.62236 67.2559C4.03658 67.8417 4.03658 68.7915 4.62236 69.3773C5.20815 69.963 6.1579 69.963 6.74368 69.3773L4.62236 67.2559ZM9.26989 51.6938C9.85567 51.1081 9.85567 50.1583 9.26989 49.5725C8.6841 48.9867 7.73435 48.9867 7.14857 49.5725L9.26989 51.6938ZM2.09617 54.6249C1.51038 55.2107 1.51038 56.1605 2.09617 56.7462C2.68195 57.332 3.6317 57.332 4.21749 56.7462L2.09617 54.6249ZM24.4271 66.8511C25.0129 66.2653 25.0129 65.3155 24.4271 64.7297C23.8413 64.1439 22.8915 64.144 22.3058 64.7297L24.4271 66.8511ZM17.2534 69.7821C16.6676 70.3679 16.6676 71.3177 17.2534 71.9034C17.8392 72.4892 18.7889 72.4892 19.3747 71.9034L17.2534 69.7821ZM32.4607 68.8218L33.9457 68.6097L32.4607 68.8218ZM50.902 56.4434L52.3869 56.2313L50.902 56.4434ZM5.17771 41.5389L5.38984 40.054L5.38984 40.054L5.17771 41.5389ZM17.5561 23.0977L17.344 24.5826L17.344 24.5826L17.5561 23.0977ZM28.6048 53.7506L20.2491 45.3948L18.1278 47.5161L26.4835 55.8719L28.6048 53.7506ZM58.8964 38.2454C51.9716 45.7118 40.8133 51.8191 34.6394 54.8459L35.96 57.5396C42.1649 54.4976 53.7652 48.1896 61.096 40.2855L58.8964 38.2454ZM19.1538 39.3602C22.1805 33.1863 28.2878 22.028 35.7542 15.1032L33.7142 12.9036C25.81 20.2345 19.502 31.8347 16.4601 38.0396L19.1538 39.3602ZM70.5034 8.57324C69.4141 16.9016 66.4986 30.0487 58.8964 38.2454L61.096 40.2855C69.3844 31.3489 72.3795 17.362 73.478 8.96229L70.5034 8.57324ZM35.7542 15.1032C43.951 7.50103 57.098 4.58551 65.4264 3.49627L65.0373 0.5216C56.6376 1.62017 42.6508 4.61525 33.7142 12.9036L35.7542 15.1032ZM73.478 8.96229C74.1316 3.96472 70.0349 -0.132018 65.0373 0.5216L65.4264 3.49627C68.4701 3.09818 70.9014 5.5295 70.5034 8.57324L73.478 8.96229ZM20.2491 45.3948C18.6177 43.7634 18.1737 41.3592 19.1538 39.3602L16.4601 38.0396C14.8803 41.262 15.6472 45.0355 18.1278 47.5161L20.2491 45.3948ZM26.4835 55.8719C28.9641 58.3525 32.7376 59.1193 35.96 57.5396L34.6394 54.8459C32.6404 55.8259 30.2362 55.3819 28.6048 53.7506L26.4835 55.8719ZM21.0427 32.7473L41.2523 52.9569L43.3736 50.8356L23.164 30.626L21.0427 32.7473ZM14.7272 57.1511L4.62236 67.2559L6.74368 69.3773L16.8485 59.2724L14.7272 57.1511ZM7.14857 49.5725L2.09617 54.6249L4.21749 56.7462L9.26989 51.6938L7.14857 49.5725ZM22.3058 64.7297L17.2534 69.7821L19.3747 71.9034L24.4271 66.8511L22.3058 64.7297ZM42.5154 19.2581C39.1392 22.6343 39.1392 28.1081 42.5154 31.4842L44.6367 29.3629C42.4321 27.1583 42.4321 23.584 44.6367 21.3794L42.5154 19.2581ZM42.5154 31.4842C45.8915 34.8604 51.3653 34.8604 54.7415 31.4842L52.6202 29.3629C50.4156 31.5675 46.8413 31.5675 44.6367 29.3629L42.5154 31.4842ZM54.7415 31.4842C58.1176 28.1081 58.1176 22.6343 54.7415 19.2581L52.6202 21.3794C54.8247 23.584 54.8247 27.1584 52.6202 29.3629L54.7415 31.4842ZM54.7415 19.2581C51.3653 15.882 45.8915 15.882 42.5154 19.2581L44.6367 21.3794C46.8413 19.1749 50.4156 19.1749 52.6202 21.3794L54.7415 19.2581ZM48.8309 58.4142L37.463 69.7821L39.5843 71.9035L50.9522 60.5355L48.8309 58.4142ZM33.9457 68.6097L32.4299 57.9997L29.4601 58.4239L30.9758 69.034L33.9457 68.6097ZM48.4066 49.5822L49.4171 56.6556L52.3869 56.2313L51.3765 49.158L48.4066 49.5822ZM37.463 69.7821C36.2553 70.9898 34.1872 70.3004 33.9457 68.6097L30.9758 69.034C31.567 73.172 36.6286 74.8592 39.5843 71.9035L37.463 69.7821ZM50.9522 60.5355C52.0812 59.4066 52.6127 57.8119 52.3869 56.2313L49.4171 56.6556C49.5093 57.3014 49.2922 57.9529 48.8309 58.4142L50.9522 60.5355ZM13.464 23.0475L2.09609 34.4154L4.21741 36.5367L15.5853 25.1688L13.464 23.0475ZM4.96558 43.0239L15.5756 44.5396L15.9999 41.5697L5.38984 40.054L4.96558 43.0239ZM24.8416 22.6232L17.7682 21.6128L17.344 24.5826L24.4173 25.5931L24.8416 22.6232ZM2.09609 34.4154C-0.859648 37.3711 0.827551 42.4327 4.96558 43.0239L5.38984 40.054C3.6991 39.8125 3.00974 37.7444 4.21741 36.5367L2.09609 34.4154ZM15.5853 25.1688C16.0466 24.7075 16.6982 24.4903 17.344 24.5826L17.7682 21.6128C16.1876 21.387 14.593 21.9185 13.464 23.0475L15.5853 25.1688Z" fill="#2B3F6C"/>
</svg>
