<svg width="64" height="64" viewBox="0 0 64 64" fill="none" xmlns="http://www.w3.org/2000/svg">
<path d="M36.8189 55.0837C36.8194 55.0739 36.8194 55.064 36.8189 55.0541V54.9949C36.8194 54.983 36.8194 54.9715 36.8189 54.9596C36.8163 54.9393 36.8126 54.9191 36.8074 54.8993L36.8002 54.8671C36.7939 54.8474 36.7892 54.8266 36.7815 54.8069L36.7705 54.7773C36.7633 54.7575 36.756 54.7378 36.7472 54.7196L36.7326 54.689L36.7046 54.636L36.6859 54.6064C36.675 54.5892 36.6635 54.5742 36.6526 54.5586L36.6303 54.529C36.6178 54.5129 36.6059 54.4994 36.5924 54.4848C36.5789 54.4703 36.5763 54.4661 36.569 54.4578C36.5617 54.449 36.5358 54.4272 36.5186 54.4121L36.5025 54.396L32.9723 51.4258C32.7853 51.2679 32.5427 51.1915 32.2991 51.2123C32.0555 51.2331 31.8301 51.3505 31.6722 51.5375C31.3444 51.9276 31.3943 52.5093 31.7844 52.8376L33.3832 54.1908H17.0281C16.5185 54.1908 16.1056 53.7778 16.1056 53.2683V49.615C16.1056 49.1054 15.6926 48.6924 15.183 48.6924C14.6734 48.6924 14.2605 49.1054 14.2605 49.615V53.2683C14.261 54.0017 14.5529 54.7056 15.0719 55.2245C15.5908 55.7434 16.2941 56.0349 17.0281 56.0359H33.5175L31.7634 57.6347C31.3873 57.9786 31.3608 58.5619 31.7047 58.9385C32.0485 59.3146 32.6319 59.3411 33.0085 58.9977L36.5188 55.7923C36.5235 55.7881 36.5277 55.7835 36.5308 55.7788L36.5713 55.7393C36.5801 55.7294 36.5885 55.7206 36.5957 55.7113C36.603 55.7014 36.6201 55.6806 36.6326 55.6645L36.6331 55.664C36.6409 55.6557 36.6477 55.6469 36.6539 55.637L36.6897 55.5804C36.6944 55.5736 36.6991 55.5663 36.7033 55.5585C36.7495 55.4744 36.7827 55.384 36.8014 55.2905V55.2718C36.8066 55.2469 36.8103 55.2219 36.8129 55.197C36.8134 55.1851 36.8134 55.1731 36.8129 55.1612V55.1108V55.0921L36.8189 55.0837ZM50.6992 32.8617H45.1639H45.1645C44.6549 32.8617 44.2419 33.2746 44.2419 33.7842C44.2419 34.2938 44.6549 34.7067 45.1645 34.7067H50.6997H50.6992C51.2088 34.7067 51.6217 34.2938 51.6217 33.7842C51.6217 33.2746 51.2088 32.8617 50.6992 32.8617ZM27.1752 9.04784C27.1747 9.05771 27.1747 9.06758 27.1752 9.07745V9.13666V9.13614C27.1768 9.14809 27.1789 9.16004 27.1815 9.17198C27.1841 9.19224 27.1877 9.2125 27.1924 9.23224L27.1996 9.26445C27.1996 9.28419 27.2106 9.30496 27.2184 9.3247L27.2293 9.35431C27.2365 9.37405 27.2438 9.39379 27.2526 9.41197L27.2672 9.44262C27.276 9.45976 27.2859 9.4769 27.2952 9.49404L27.3139 9.52469L27.3472 9.57248L27.3695 9.60209L27.4074 9.64624L27.4318 9.67221C27.4464 9.68832 27.4641 9.70442 27.4796 9.71896L27.4968 9.73351H27.5041L31.0342 12.7053L31.0353 12.7058C31.4249 13.0341 32.0072 12.9837 32.3354 12.5942C32.6632 12.204 32.6133 11.6217 32.2232 11.294L30.6244 9.94079H46.9662C47.2109 9.94079 47.4451 10.0379 47.6186 10.2109C47.7916 10.3839 47.8887 10.6187 47.8887 10.8633V14.515C47.8887 15.0246 48.3017 15.4376 48.8113 15.4376C49.3203 15.4376 49.7338 15.0246 49.7338 14.515V10.8742C49.7328 10.1408 49.4414 9.43686 48.9224 8.91797C48.4035 8.39905 47.6996 8.10763 46.9662 8.10659H30.4768L32.2309 6.50779H32.2304C32.607 6.16392 32.6335 5.58057 32.2896 5.20397C31.9458 4.82789 31.3619 4.8014 30.9858 5.14527L27.4754 8.3482C27.4708 8.35183 27.4671 8.35599 27.463 8.36015L27.4235 8.40066C27.4147 8.40949 27.4058 8.41936 27.398 8.42923C27.3845 8.44377 27.3736 8.45988 27.3612 8.47494C27.3487 8.48949 27.3466 8.49364 27.3404 8.50299L27.3045 8.55961C27.2993 8.56689 27.2952 8.57416 27.291 8.58143C27.2765 8.60844 27.263 8.63545 27.2505 8.66402C27.2245 8.72324 27.2053 8.78505 27.1923 8.84842V8.86712C27.1877 8.89206 27.184 8.91699 27.1814 8.94192C27.1809 8.95387 27.1809 8.96582 27.1814 8.97776V9.02815V9.04685L27.1752 9.04784ZM14.8161 20.5333C15.1921 20.5339 15.5308 20.3058 15.6721 19.9573C15.8129 19.6087 15.7287 19.2093 15.4586 18.948L11.1679 14.7965H11.6292C12.5917 14.7945 13.5247 14.4651 14.2757 13.8631C15.0263 13.2605 15.5499 12.4211 15.7608 11.482H16.7249C17.2345 11.482 17.6475 11.069 17.6475 10.5594C17.6475 10.0499 17.2345 9.63689 16.7249 9.63689H15.7608C15.644 9.10861 15.4268 8.60735 15.1214 8.1611H16.7202C17.2298 8.1611 17.6427 7.74813 17.6427 7.23856C17.6427 6.72898 17.2298 6.31602 16.7202 6.31602H8.88896C8.37939 6.31602 7.96642 6.72898 7.96642 7.23856C7.96642 7.74813 8.37939 8.1611 8.88896 8.1611H11.629C12.1017 8.16214 12.563 8.30238 12.9557 8.56523C13.3484 8.82756 13.6543 9.20051 13.8356 9.63685H8.88893C8.37936 9.63685 7.96639 10.0498 7.96639 10.5594C7.96639 11.069 8.37936 11.4819 8.88893 11.4819H13.8361H13.8356C13.6538 11.9172 13.3468 12.2886 12.9546 12.5499C12.5619 12.8117 12.1007 12.9514 11.629 12.952H8.78871L8.73728 12.9608L8.69936 12.967V12.9665C8.68326 12.9696 8.66715 12.9738 8.65157 12.979L8.61209 12.9888L8.55807 13.0086L8.52846 13.0195C8.50768 13.0283 8.48535 13.0392 8.46457 13.0501L8.44847 13.0574L8.39808 13.0881L8.37107 13.1052C8.3586 13.1125 8.34769 13.1223 8.33523 13.1312L8.29835 13.1592L8.27134 13.1836L8.23082 13.2216L8.21108 13.2439C8.19861 13.2574 8.18667 13.2709 8.17524 13.286C8.16433 13.3005 8.1581 13.3083 8.14927 13.3192L8.12225 13.3587C8.11342 13.3712 8.10615 13.3847 8.09888 13.3966V13.3971C8.09057 13.4096 8.0833 13.4226 8.07706 13.4366L8.05629 13.4771C8.05629 13.4906 8.04382 13.5041 8.03914 13.5176C8.03447 13.5311 8.02824 13.5457 8.02304 13.5608C8.01837 13.5753 8.01317 13.5888 8.00954 13.6039C8.0059 13.6184 8.00071 13.6335 7.99707 13.648C7.99343 13.6626 7.99084 13.6761 7.9872 13.6911C7.98356 13.7057 7.9872 13.7233 7.9872 13.7389C7.9872 13.755 7.9872 13.7659 7.98097 13.7794C7.97473 13.793 7.98097 13.8163 7.98097 13.835V13.8646V13.8709V13.9285V13.9628C7.98097 13.9737 7.98097 13.9971 7.9898 14.0142C7.99863 14.0314 7.9898 14.0402 7.9898 14.0522C7.9898 14.0646 7.99707 14.0828 8.00071 14.0979C8.00434 14.1124 8.00071 14.1259 8.01161 14.1399C8.02252 14.1534 8.02252 14.1721 8.02876 14.1877C8.03499 14.2038 8.03759 14.2121 8.04226 14.2236C8.04694 14.2345 8.06096 14.2631 8.07031 14.2828L8.08018 14.3051C8.09005 14.3212 8.09992 14.3373 8.11083 14.3529H8.11135C8.11654 14.3628 8.12226 14.3721 8.12849 14.381C8.1368 14.394 8.14563 14.4064 8.1555 14.4178C8.16381 14.4303 8.17316 14.4423 8.18251 14.4537L8.20848 14.4817L8.24536 14.5212L14.1738 20.2581C14.3437 20.43 14.5743 20.5292 14.8159 20.5334L14.8161 20.5333ZM37.4198 27.7115H50.7041C50.9487 27.7115 51.1836 27.6144 51.3565 27.4414C51.5295 27.2684 51.6266 27.0342 51.6266 26.7895V23.0994C51.6266 22.8547 51.5295 22.6199 51.3565 22.4469C51.1835 22.274 50.9487 22.1768 50.7041 22.1768H37.4198C36.9107 22.1768 36.4978 22.5898 36.4978 23.0994V26.7895C36.4978 27.2986 36.9107 27.7116 37.4198 27.7116V27.7115ZM38.3423 24.0214H49.7816V25.8665H38.3423V24.0214ZM40.0757 32.8618H34.5405C34.0309 32.8618 33.6179 33.2748 33.6179 33.7843C33.6179 34.2939 34.0309 34.7069 34.5405 34.7069H40.0757C40.5853 34.7069 40.9982 34.2939 40.9982 33.7843C40.9982 33.2748 40.5853 32.8618 40.0757 32.8618ZM50.3238 46.5759H52.0458C52.3071 46.5759 52.5569 46.6798 52.7419 46.8642C52.9263 47.0486 53.0301 47.299 53.0301 47.5597C53.0301 48.0693 53.4431 48.4823 53.9522 48.4823C54.4617 48.4823 54.8747 48.0693 54.8747 47.5597C54.8757 46.8304 54.5947 46.1286 54.0903 45.6019C53.586 45.0747 52.8977 44.7625 52.1689 44.7308V43.4394C52.1689 42.9299 51.756 42.5169 51.2464 42.5169C50.7368 42.5169 50.3239 42.9299 50.3239 43.4394V44.7308C49.5738 44.7308 48.8538 45.0289 48.3235 45.5593C47.7931 46.0902 47.4949 46.8096 47.4949 47.5597V49.2816C47.4949 50.0322 47.7931 50.7517 48.3235 51.282C48.8538 51.8129 49.5738 52.1111 50.3239 52.1111H52.0458C52.3071 52.1111 52.5569 52.2145 52.7419 52.3989C52.9263 52.5838 53.0302 52.8342 53.0302 53.0949V54.8169C53.0302 55.0776 52.9263 55.328 52.7419 55.5124C52.5569 55.6973 52.3071 55.8007 52.0458 55.8007H50.3239C49.7805 55.8007 49.34 55.3602 49.34 54.8169V54.727C49.34 54.2174 48.9271 53.8045 48.4175 53.8045C47.9079 53.8045 47.4949 54.2174 47.4949 54.727V54.8169C47.4949 55.567 47.7931 56.287 48.3235 56.8173C48.8538 57.3476 49.5738 57.6458 50.3239 57.6458V58.9371C50.3239 59.4467 50.7368 59.8597 51.2464 59.8597C51.756 59.8597 52.1689 59.4467 52.1689 58.9371V57.6422C52.8977 57.6105 53.586 57.2983 54.0904 56.7716C54.5948 56.2443 54.8758 55.5425 54.8747 54.8132V53.0912C54.8747 52.3406 54.5771 51.6212 54.0462 51.0908C53.5158 50.56 52.7964 50.2623 52.0458 50.2623H50.3239C49.7805 50.2623 49.34 49.8218 49.34 49.278V47.556C49.3421 47.0142 49.7821 46.5758 50.3239 46.5758L50.3238 46.5759ZM23.9183 34.7065H29.4535C29.9626 34.7065 30.3755 34.2935 30.3755 33.7839C30.3755 33.2744 29.9626 32.8614 29.4535 32.8614H23.9183C23.4087 32.8614 22.9957 33.2744 22.9957 33.7839C22.9957 34.2935 23.4087 34.7065 23.9183 34.7065ZM59.8824 42.4909C58.8959 41.5019 57.7479 40.6875 56.4878 40.0837V21.9056C56.4862 20.6828 55.9995 19.5103 55.1346 18.646C54.2703 17.7811 53.0979 17.2944 51.875 17.2928H24.27C25.4346 14.3049 25.3847 10.9799 24.1323 8.02789C22.8794 5.0759 20.5226 2.73002 17.5644 1.49119C14.6067 0.252825 11.2817 0.219061 8.29895 1.39717C5.31623 2.5758 2.91224 4.87283 1.60014 7.79943C0.287496 10.7255 0.170622 14.0484 1.27393 17.0597C2.37776 20.071 4.61396 22.5315 7.50625 23.9163V42.0945C7.5078 43.3173 7.99453 44.4897 8.85891 45.3541C9.72379 46.219 10.8961 46.7051 12.119 46.7067H39.7241C38.6431 49.4728 38.5995 52.536 39.601 55.3316C40.6025 58.1272 42.5815 60.4658 45.1725 61.9162C47.7635 63.367 50.7919 63.8308 53.6987 63.2231C56.6049 62.6148 59.1934 60.976 60.9861 58.6089C62.7786 56.2412 63.6544 53.3053 63.4514 50.3429C63.2488 47.3806 61.9807 44.5916 59.8822 42.4904L59.8824 42.4909ZM5.41692 20.205C3.41865 18.2524 2.28461 15.5813 2.26799 12.7879C2.25189 9.99371 3.35468 7.30981 5.33009 5.33374C7.30602 3.35834 9.99006 2.25555 12.7842 2.27164C15.5778 2.28826 18.2488 3.42221 20.2014 5.42058C22.2002 7.37324 23.3337 10.0442 23.3503 12.8383C23.3664 15.6319 22.2636 18.3163 20.2882 20.2919C18.3128 22.2674 15.6282 23.37 12.8346 23.354C10.0405 23.3373 7.36945 22.2039 5.41692 20.205ZM19.4688 24.0183V27.3615H14.2177V25.0246C15.4987 24.8828 16.7495 24.5389 17.9224 24.0059C17.9785 24.0163 18.0356 24.0215 18.0922 24.022L19.4688 24.0183ZM12.1196 44.8627C11.3856 44.8617 10.6822 44.5698 10.1633 44.0508C9.64493 43.5319 9.35299 42.8286 9.35195 42.0951V24.6204C10.3347 24.9061 11.3497 25.0676 12.3726 25.1024V28.2857C12.3726 28.7952 12.786 29.2082 13.2951 29.2082H20.3912C20.6359 29.2082 20.8707 29.1111 21.0437 28.9381C21.2166 28.7651 21.3138 28.5303 21.3138 28.2857V23.099C21.3127 22.7151 21.0743 22.3723 20.7149 22.2377C20.9865 22.0076 21.2525 21.7656 21.507 21.511C22.2197 20.7994 22.843 20.0025 23.363 19.1398H51.875C52.6089 19.1403 53.3123 19.4322 53.8307 19.9511C54.3496 20.4701 54.6415 21.1734 54.6426 21.9069V39.3803C53.6613 39.0951 52.649 38.933 51.6277 38.8982C51.5503 37.9679 51.0314 37.1311 50.233 36.6474C49.4341 36.1638 48.4523 36.0926 47.5922 36.4552C47.2348 36.3041 46.8509 36.2261 46.4629 36.2261C45.717 36.2308 45.0001 36.5191 44.4594 37.0328C43.9182 37.5466 43.593 38.2473 43.5504 38.9921C43.5073 39.737 43.7499 40.4705 44.2283 41.0429C42.7713 42.0465 41.5453 43.3488 40.6316 44.8634L12.1196 44.8627ZM49.7792 38.9686C48.4328 39.1192 47.1207 39.4932 45.8974 40.0755C45.4907 39.8179 45.301 39.3239 45.432 38.8605C45.5629 38.3977 45.9831 38.0757 46.4641 38.0694C46.6807 38.0689 46.8921 38.1349 47.0693 38.2585C47.3851 38.4777 47.8032 38.4777 48.1185 38.2585C48.2962 38.1349 48.5076 38.0689 48.7237 38.0694C49.2473 38.0725 49.6925 38.4523 49.7792 38.9686H49.7792ZM58.5786 58.5803C56.2801 60.8783 53.0434 61.977 49.8208 61.5526C46.5982 61.1277 43.7567 59.2286 42.1314 56.4137C40.5066 53.5988 40.2833 50.1881 41.5273 47.1852C42.7714 44.1823 45.3417 41.929 48.4812 41.0879C51.6207 40.2468 54.9732 40.9138 57.5518 42.8929C60.1304 44.872 61.6414 47.9373 61.6414 51.188C61.6492 53.9623 60.5464 56.624 58.5788 58.5803H58.5786ZM13.302 34.7053H18.8373C19.3468 34.7053 19.7598 34.2923 19.7598 33.7827C19.7598 33.2732 19.3468 32.8602 18.8373 32.8602H13.302C12.7925 32.8602 12.3795 33.2732 12.3795 33.7827C12.3795 34.2923 12.7925 34.7053 13.302 34.7053ZM24.372 40.2405L13.302 40.24C12.7925 40.24 12.3795 40.653 12.3795 41.1625C12.3795 41.6721 12.7925 42.0851 13.302 42.0851H24.372C24.8816 42.0851 25.2945 41.6721 25.2945 41.1625C25.2945 40.653 24.8816 40.24 24.372 40.24V40.2405ZM29.9072 36.5504H13.3022C12.7926 36.5504 12.3796 36.9633 12.3796 37.4729C12.3796 37.982 12.7926 38.3949 13.3022 38.3949H29.9072C30.4168 38.3949 30.8298 37.982 30.8298 37.4729C30.8298 36.9633 30.4168 36.5504 29.9072 36.5504Z" fill="#2B3F6C"/>
</svg>
