<svg width="100" height="100" viewBox="0 0 100 100" fill="none" xmlns="http://www.w3.org/2000/svg">
<path d="M67.1587 63.6556C67.5171 63.2197 67.8766 62.7792 68.1898 62.3081C68.5036 61.8396 68.7934 61.345 69.0833 60.8557C72.522 56.5157 74.5925 50.941 74.5925 44.8532C74.5925 31.0298 63.9153 19.824 50.7468 19.824C43.2838 19.824 36.6348 23.4306 32.2619 29.0629C32.1123 29.2151 31.9721 29.3699 31.85 29.5418C31.7518 29.681 31.6583 29.8384 31.5664 30.001C30.0366 32.1723 28.5213 37.4505 28.7837 37.5689C28.7131 38.0583 28.6632 38.5502 28.6632 39.0306C28.6674 40.0358 28.6092 41.0539 28.6632 42.0559C28.7172 43.0672 29.1001 43.7602 29.2928 44.7518C29.6601 46.6186 29.2653 48.4684 28.6669 50.1401C28.1012 51.7182 27.5568 53.3373 26.9153 54.908C26.3933 56.1848 24.4329 57.8892 25.985 58.8808C26.7408 59.3623 28.2129 59.3545 28.6644 60.021C29.1579 60.7467 28.5163 61.6661 28.7589 62.347C28.9807 62.9688 29.4243 62.5808 29.7376 62.9179C30.2622 63.4769 29.7859 63.4976 29.5958 63.8784C28.9766 65.1417 29.2467 64.9869 29.9999 66.0668C31.0835 67.6267 29.4212 69.5186 30.1651 71.0826C31.0492 72.9349 33.8189 72.855 35.5523 73.0373C37.9901 73.2892 40.5525 73.138 43.023 73.1328L46.2971 80.1761H73.3914C73.3909 80.1761 66.3455 72.2332 67.1591 63.6553L67.1587 63.6556Z" stroke="#2B3F6C" stroke-width="3" stroke-miterlimit="10" stroke-linecap="round" stroke-linejoin="round"/>
<path d="M45.5039 36.5311C49.6657 30.1902 61.0578 34.5868 55.987 43.633C55.1195 45.1825 51.1888 48.2224 50.5104 49.4665C48.9899 52.257 49.3271 53.9888 49.3271 53.9888" stroke="#2B3F6C" stroke-width="3" stroke-miterlimit="10" stroke-linecap="round" stroke-linejoin="round"/>
<path d="M49.3281 59.6093V61.8908" stroke="#2B3F6C" stroke-width="3" stroke-miterlimit="10" stroke-linecap="round" stroke-linejoin="round"/>
</svg>
