<svg width="64" height="64" viewBox="0 0 64 64" fill="none" xmlns="http://www.w3.org/2000/svg">
<path d="M27.3987 0.799468H2.04408C1.19097 0.799468 0.5 1.49043 0.5 2.34273V27.6973C0.5 28.1072 0.662964 28.4991 0.952232 28.7892C1.24149 29.0785 1.63423 29.2414 2.0441 29.2414H27.3987C27.8077 29.2414 28.2005 29.0785 28.4898 28.7892C28.7798 28.4991 28.942 28.1072 28.942 27.6973V2.34273C28.942 1.9337 28.7798 1.54093 28.4898 1.25168C28.2005 0.961607 27.8078 0.799446 27.3987 0.799446L27.3987 0.799468ZM25.8554 26.152H3.588V3.88666H25.8554V26.152ZM27.3987 34.9146H2.04408C1.19097 34.9146 0.5 35.6056 0.5 36.4587V61.8112C0.5 62.2202 0.662964 62.613 0.952232 62.9023C1.24149 63.1923 1.63423 63.3545 2.0441 63.3545H27.3987C27.8077 63.3545 28.2005 63.1923 28.4898 62.9023C28.7798 62.613 28.942 62.2203 28.942 61.8112V36.4587C28.942 36.0488 28.7798 35.6561 28.4898 35.3668C28.2005 35.0776 27.8078 34.9146 27.3987 34.9146L27.3987 34.9146ZM25.8554 60.2671H3.588V38.0018H25.8554V60.2671ZM61.5104 34.9146H36.1579C35.3056 34.9146 34.6146 35.6056 34.6146 36.4587V61.8112C34.6146 62.2202 34.7768 62.613 35.066 62.9023C35.3561 63.1923 35.7489 63.3545 36.1579 63.3545H61.5104C61.9203 63.3545 62.3122 63.1923 62.6023 62.9023C62.8916 62.613 63.0545 62.2203 63.0545 61.8112V36.4587C63.0545 36.0488 62.8916 35.6561 62.6023 35.3668C62.3122 35.0776 61.9203 34.9146 61.5104 34.9146L61.5104 34.9146ZM59.9672 60.2671H37.7018V38.0018H59.9672V60.2671ZM51.4986 10.1503C49.9928 9.32082 48.1881 9.23447 46.6105 9.91647C45.033 10.5993 43.8595 11.9731 43.4336 13.6386C43.0074 15.3041 43.3757 17.0723 44.4309 18.429C45.4869 19.7857 47.1109 20.5777 48.8293 20.5735C49.3598 20.5727 49.8878 20.4969 50.3962 20.3478C51.8067 19.9315 52.9938 18.9724 53.6978 17.6818C54.4027 16.3911 54.5664 14.8739 54.1549 13.4626C53.7426 12.0513 52.7877 10.8608 51.5002 10.152L51.4986 10.1503ZM50.9951 16.2029V16.2021C50.5168 17.0739 49.5602 17.5726 48.5718 17.465C47.5826 17.3567 46.7564 16.6649 46.4769 15.7099C46.1975 14.7558 46.5201 13.7266 47.295 13.1025C48.0699 12.4791 49.1438 12.383 50.0165 12.8589C50.5926 13.1701 51.0196 13.6989 51.2029 14.3264C51.3871 14.9546 51.3121 15.6301 50.9951 16.2021L50.9951 16.2029ZM63.1555 18.9895C62.7481 17.7819 62.0644 16.686 61.1576 15.7905L61.1095 13.6801H61.1103C61.9748 12.7431 62.6087 11.617 62.9624 10.3923C63.0838 9.97591 63.0251 9.52777 62.8002 9.15783L60.4617 5.31762C60.2352 4.94523 59.8628 4.68614 59.435 4.60383C58.1867 4.35694 56.8977 4.40094 55.6688 4.7342L53.8167 3.72137C53.437 2.50485 52.7778 1.39513 51.8921 0.480026C51.5874 0.17283 51.1727 9.33415e-05 50.7408 0.00172038L46.2414 0.105203V0.104388C45.8071 0.11498 45.3981 0.307277 45.1129 0.634027C44.2695 1.59143 43.6617 2.7329 43.3374 3.96674L41.5358 5.06267H41.5366C40.2932 4.78236 39.0018 4.79786 37.7657 5.10748C37.3428 5.20933 36.9818 5.48475 36.7732 5.86689L34.6124 9.81391C34.4071 10.1928 34.3696 10.6401 34.5073 11.0484C34.918 12.2576 35.6049 13.3535 36.5142 14.2499L36.5623 16.3602H36.5615C35.6978 17.2973 35.063 18.4225 34.7094 19.6472C34.588 20.0636 34.6475 20.5118 34.8732 20.8825L37.2117 24.7261C37.4374 25.0968 37.809 25.3559 38.2351 25.439C39.4851 25.6908 40.7766 25.646 42.0061 25.3095L43.8582 26.3239V26.3231C44.2395 27.5388 44.8979 28.6485 45.7828 29.5645C46.0745 29.8709 46.4778 30.0436 46.9007 30.0436H46.9366L51.4359 29.9385H51.4351C51.8686 29.9287 52.2785 29.7364 52.5637 29.4088C53.4062 28.4522 54.0132 27.3114 54.3367 26.0778L56.1383 24.9802C57.3833 25.2597 58.6756 25.2442 59.9142 24.9354C60.3355 24.8328 60.694 24.5573 60.9018 24.176L63.0626 20.2273V20.2281C63.2655 19.8468 63.2989 19.397 63.1555 18.9896L63.1555 18.9895ZM58.5355 22.0548V22.0556C58.0475 22.133 57.5504 22.133 57.0632 22.0556C56.5572 21.6172 55.8271 21.5545 55.2543 21.9008L51.9958 23.8889C51.4246 24.2369 51.1419 24.9132 51.2967 25.5634C51.1419 26.0327 50.9145 26.4752 50.6236 26.8744L47.5965 26.9437C47.2853 26.5591 47.0375 26.1281 46.8632 25.6652C46.9879 25.0101 46.6758 24.3485 46.0916 24.0266L42.7378 22.1933V22.1925C42.1511 21.8714 41.4243 21.9643 40.9378 22.4223C40.4547 22.5225 39.9592 22.5469 39.4679 22.4948L37.8937 19.9078V19.9086C38.0721 19.4474 38.3214 19.0172 38.6335 18.6334C39.2642 18.4118 39.6797 17.8088 39.6643 17.1407L39.5763 13.3215V13.3223C39.5608 12.6534 39.1175 12.0708 38.4771 11.8785C38.1487 11.511 37.879 11.0946 37.6794 10.644L39.1322 7.98922H39.1314C39.6194 7.911 40.1165 7.911 40.6046 7.98922C41.1098 8.42679 41.8407 8.48952 42.4135 8.14323L45.6792 6.1567C46.2504 5.80877 46.5332 5.13247 46.3784 4.48226C46.5315 4.01292 46.7589 3.57047 47.0514 3.17285L50.0785 3.10359C50.3882 3.4882 50.6359 3.91924 50.8119 4.38042C50.688 5.03553 50.9993 5.69635 51.5835 6.01821L54.9356 7.85319C55.5231 8.17424 56.2491 8.08052 56.7355 7.62178C57.222 7.5183 57.7215 7.49222 58.2161 7.54437L59.7887 10.1299C59.611 10.5911 59.3617 11.0213 59.0496 11.4051C58.4198 11.6267 58.0034 12.2281 58.0181 12.8962L58.1061 16.7177C58.1216 17.3858 58.5648 17.9684 59.2053 18.1607C59.5344 18.5282 59.8033 18.9446 60.0022 19.396L58.5355 22.0548Z" fill="#2B3F6C"/>
</svg>
