<svg width="24" height="25" viewBox="0 0 24 25" fill="none" xmlns="http://www.w3.org/2000/svg">
<path d="M21.0586 7.51464C21.0678 7.72584 21.0679 7.92744 21.0679 8.13864C21.0771 14.5419 16.3726 21.9339 7.76939 21.9339C5.23194 21.9339 2.7408 21.1755 0.601562 19.7547C0.971993 19.8027 1.34242 19.8219 1.71285 19.8219C3.81505 19.8219 5.86168 19.0923 7.51935 17.7387C5.51903 17.7003 3.75948 16.3467 3.14827 14.3691C3.85209 14.5131 4.57443 14.4843 5.25973 14.2827C3.08345 13.8411 1.51838 11.8539 1.50912 9.54025C1.50912 9.52105 1.50912 9.50185 1.50912 9.48265C2.15737 9.85705 2.88897 10.0682 3.62983 10.0874C1.5832 8.66664 0.944211 5.83464 2.18515 3.61703C4.56517 6.65064 8.06574 8.48424 11.8256 8.68584C11.4459 7.00584 11.9645 5.23943 13.1777 4.04903C15.0576 2.21542 18.0211 2.31142 19.7991 4.26023C20.8456 4.04903 21.855 3.64583 22.7718 3.07943C22.4199 4.20263 21.6883 5.15303 20.7159 5.75784C21.642 5.64263 22.5496 5.38343 23.4016 4.99943C22.7718 5.97864 21.9754 6.82344 21.0586 7.51464Z" fill="white"/>
</svg>
