<svg xmlns="http://www.w3.org/2000/svg" width="30" height="30" viewBox="0 0 30 30" fill="none">
<g clip-path="url(#clip0_1_227)">
<path d="M0.635255 14.8205C0.634557 17.341 1.29316 19.8022 2.54549 21.9715L0.515488 29.3834L8.1006 27.3945C10.1985 28.5366 12.5491 29.1351 14.9378 29.1352H14.9441C22.8296 29.1352 29.2485 22.7186 29.2519 14.8317C29.2534 11.01 27.7664 7.41627 25.0648 4.71255C22.3636 2.00906 18.7712 0.519414 14.9435 0.51767C7.05712 0.51767 0.638627 6.93395 0.635371 14.8205" fill="url(#paint0_linear_1_227)"/>
<path d="M0.124419 14.8158C0.123605 17.4271 0.805814 19.9763 2.10279 22.2233L0 29.9008L7.85709 27.8407C10.022 29.021 12.4594 29.6434 14.9397 29.6443H14.946C23.1144 29.6443 29.764 22.9969 29.7674 14.8277C29.7688 10.8686 28.2284 7.1457 25.4302 4.34512C22.6317 1.54488 18.9108 0.00162791 14.946 0C6.77628 0 0.127791 6.64651 0.124535 14.8158H0.124419ZM4.80349 21.8363L4.51012 21.3706C3.27686 19.4097 2.62593 17.1436 2.62686 14.8167C2.62953 8.02663 8.15558 2.50233 14.9507 2.50233C18.2414 2.50372 21.334 3.78651 23.66 6.11395C25.9859 8.44163 27.2658 11.5358 27.265 14.8267C27.262 21.6169 21.7358 27.1419 14.946 27.1419H14.9412C12.7303 27.1407 10.5621 26.547 8.67116 25.425L8.22116 25.1581L3.5586 26.3806L4.80349 21.8362V21.8363Z" fill="url(#paint1_linear_1_227)"/>
<path d="M11.2408 8.62165C10.9634 8.00502 10.6714 7.99257 10.4076 7.98176C10.1915 7.97246 9.94453 7.97316 9.69778 7.97316C9.45081 7.97316 9.04953 8.06606 8.71034 8.43641C8.37081 8.80711 7.41406 9.70292 7.41406 11.5249C7.41406 13.347 8.74116 15.1078 8.92616 15.3551C9.11139 15.602 11.4881 19.4606 15.2523 20.945C18.3807 22.1786 19.0173 21.9333 19.6963 21.8714C20.3753 21.8098 21.8874 20.9758 22.1959 20.1111C22.5046 19.2464 22.5046 18.5053 22.4121 18.3504C22.3195 18.1961 22.0726 18.1034 21.7022 17.9183C21.3317 17.733 19.511 16.8371 19.1716 16.7135C18.8321 16.59 18.5852 16.5284 18.3382 16.8992C18.0913 17.2694 17.3821 18.1034 17.1659 18.3504C16.95 18.5979 16.7338 18.6287 16.3636 18.4435C15.993 18.2577 14.8003 17.8671 13.3853 16.6056C12.2844 15.624 11.5412 14.4118 11.3251 14.0409C11.1091 13.6707 11.302 13.47 11.4877 13.2855C11.6541 13.1196 11.8581 12.853 12.0435 12.6369C12.2281 12.4206 12.2898 12.2663 12.4132 12.0193C12.5369 11.7721 12.475 11.5558 12.3826 11.3706C12.2898 11.1854 11.5701 9.35397 11.2408 8.62176" fill="white"/>
</g>
<defs>
<linearGradient id="paint0_linear_1_227" x1="14.8837" y1="29.3834" x2="14.8837" y2="0.51767" gradientUnits="userSpaceOnUse">
<stop stop-color="#1FAF38"/>
<stop offset="1" stop-color="#60D669"/>
</linearGradient>
<linearGradient id="paint1_linear_1_227" x1="14.8837" y1="29.9008" x2="14.8837" y2="0" gradientUnits="userSpaceOnUse">
<stop stop-color="#F9F9F9"/>
<stop offset="1" stop-color="white"/>
</linearGradient>
<clipPath id="clip0_1_227">
<rect width="29.7675" height="30" fill="white"/>
</clipPath>
</defs>
</svg>