<svg width="24" height="18" viewBox="0 0 24 18" fill="none" xmlns="http://www.w3.org/2000/svg">
<path d="M23.5057 3.5634C23.2289 2.53539 22.4184 1.72485 21.3904 1.44808C19.5123 0.934082 11.9999 0.934082 11.9999 0.934082C11.9999 0.934082 4.48762 0.934082 2.60954 1.42831C1.60131 1.70508 0.771002 2.53539 0.494232 3.5634C0 5.44148 0 9.33602 0 9.33602C0 9.33602 0 13.2503 0.494232 15.1086C0.771002 16.1367 1.58154 16.9472 2.60954 17.224C4.50739 17.738 11.9999 17.738 11.9999 17.738C11.9999 17.738 19.5123 17.738 21.3904 17.2437C22.4184 16.967 23.2289 16.1564 23.5057 15.1284C23.9999 13.2503 23.9999 9.35579 23.9999 9.35579C23.9999 9.35579 24.0197 5.44148 23.5057 3.5634Z" fill="white"/>
<path d="M9.60938 12.9338L15.8565 9.3358L9.60938 5.73779V12.9338Z" fill="#2B73FF"/>
</svg>
